<?xml version="1.0" encoding="utf-8" standalone="no"?>
<!DOCTYPE svg PUBLIC "-//W3C//DTD SVG 1.1//EN"
  "http://www.w3.org/Graphics/SVG/1.1/DTD/svg11.dtd">
<!-- Created with matplotlib (http://matplotlib.org/) -->
<svg height="661pt" version="1.1" viewBox="0 0 755 661" width="755pt" xmlns="http://www.w3.org/2000/svg" xmlns:xlink="http://www.w3.org/1999/xlink">
 <defs>
  <style type="text/css">
*{stroke-linecap:butt;stroke-linejoin:round;}
  </style>
 </defs>
 <g id="figure_1">
  <g id="patch_1">
   <path d="M 0 661.68 
L 755.28 661.68 
L 755.28 0 
L 0 0 
z
" style="fill:#ffffff;"/>
  </g>
  <g id="axes_1">
   <g id="patch_2">
    <path d="M 94.41 588.8952 
L 679.752 588.8952 
L 679.752 79.4016 
L 94.41 79.4016 
z
" style="fill:#ffffff;"/>
   </g>
   <g id="matplotlib.axis_1">
    <g id="xtick_1">
     <g id="line2d_1">
      <defs>
       <path d="M 0 0 
L 0 3.5 
" id="mad8366193e" style="stroke:#000000;stroke-width:0.8;"/>
      </defs>
      <g>
       <use style="stroke:#000000;stroke-width:0.8;" x="121.016455" xlink:href="#mad8366193e" y="588.8952"/>
      </g>
     </g>
     <g id="text_1">
      <!-- 0 -->
      <defs>
       <path d="M 3.125 29.296875 
Q 3.90625 50 6.4375 56.046875 
Q 8.984375 62.109375 13.671875 66.015625 
Q 18.359375 69.921875 25.1875 69.921875 
Q 32.03125 69.921875 37.109375 64.25 
Q 42.1875 58.59375 43.75 50 
Q 45.3125 41.40625 44.71875 30.265625 
Q 44.140625 19.140625 40.8125 12.109375 
Q 37.5 5.078125 30.859375 2.34375 
Q 24.21875 -0.390625 17.578125 2.921875 
Q 10.9375 6.25 8.203125 11.71875 
Q 5.46875 17.1875 4.296875 23.234375 
Q 3.125 29.296875 3.90625 50 
z
M 12.890625 52.734375 
Q 10.546875 31.25 12.5 22.84375 
Q 14.453125 14.453125 18.9375 10.9375 
Q 23.4375 7.421875 28.125 9.5625 
Q 32.8125 11.71875 34.953125 18.15625 
Q 37.109375 24.609375 37.109375 32.21875 
Q 37.109375 39.84375 36.515625 46.09375 
Q 35.9375 52.34375 33 57.421875 
Q 30.078125 62.5 25.1875 62.6875 
Q 20.3125 62.890625 16.59375 57.8125 
Q 12.890625 52.734375 10.546875 31.25 
z
" id="SimHei-30"/>
      </defs>
      <g transform="translate(118.516455 602.7702)scale(0.1 -0.1)">
       <use xlink:href="#SimHei-30"/>
      </g>
     </g>
    </g>
    <g id="xtick_2">
     <g id="line2d_2">
      <g>
       <use style="stroke:#000000;stroke-width:0.8;" x="217.767198" xlink:href="#mad8366193e" y="588.8952"/>
      </g>
     </g>
     <g id="text_2">
      <!-- 2 -->
      <defs>
       <path d="M 4.6875 3.90625 
Q 5.078125 9.765625 10.15625 14.453125 
Q 15.234375 19.140625 23.046875 29.09375 
Q 30.859375 39.0625 33.203125 44.53125 
Q 35.546875 50 34.953125 53.90625 
Q 34.375 57.8125 31.25 60.34375 
Q 28.125 62.890625 24.015625 62.5 
Q 19.921875 62.109375 16.203125 59.375 
Q 12.5 56.640625 10.546875 51.171875 
L 3.125 52.34375 
Q 6.25 61.328125 11.125 65.421875 
Q 16.015625 69.53125 22.65625 69.921875 
Q 26.5625 70.3125 29.6875 69.71875 
Q 32.8125 69.140625 36.125 66.984375 
Q 39.453125 64.84375 41.59375 60.546875 
Q 43.75 56.25 43.15625 50.1875 
Q 42.578125 44.140625 37.109375 35.734375 
Q 31.640625 27.34375 16.015625 9.375 
L 44.140625 9.375 
L 44.140625 2.34375 
L 4.6875 2.34375 
z
" id="SimHei-32"/>
      </defs>
      <g transform="translate(215.267198 602.7702)scale(0.1 -0.1)">
       <use xlink:href="#SimHei-32"/>
      </g>
     </g>
    </g>
    <g id="xtick_3">
     <g id="line2d_3">
      <g>
       <use style="stroke:#000000;stroke-width:0.8;" x="314.517942" xlink:href="#mad8366193e" y="588.8952"/>
      </g>
     </g>
     <g id="text_3">
      <!-- 4 -->
      <defs>
       <path d="M 31.25 17.1875 
L 1.171875 17.1875 
L 1.171875 23.828125 
L 32.8125 69.53125 
L 38.671875 69.53125 
L 38.671875 23.828125 
L 48.046875 23.828125 
L 48.046875 17.1875 
L 38.671875 17.1875 
L 38.671875 2.34375 
L 31.25 2.34375 
z
M 31.25 23.828125 
L 31.25 54.6875 
L 9.375 23.828125 
z
" id="SimHei-34"/>
      </defs>
      <g transform="translate(312.017942 602.7702)scale(0.1 -0.1)">
       <use xlink:href="#SimHei-34"/>
      </g>
     </g>
    </g>
    <g id="xtick_4">
     <g id="line2d_4">
      <g>
       <use style="stroke:#000000;stroke-width:0.8;" x="411.268686" xlink:href="#mad8366193e" y="588.8952"/>
      </g>
     </g>
     <g id="text_4">
      <!-- 6 -->
      <defs>
       <path d="M 3.515625 19.53125 
Q 4.296875 30.859375 6.046875 34.765625 
Q 7.8125 38.671875 11.328125 44.53125 
L 27.34375 69.53125 
L 36.328125 69.53125 
L 19.921875 43.75 
Q 30.46875 46.484375 36.71875 42.96875 
Q 42.96875 39.453125 45.109375 34.953125 
Q 47.265625 30.46875 47.453125 25.1875 
Q 47.65625 19.921875 45.890625 14.84375 
Q 44.140625 9.765625 39.640625 5.65625 
Q 35.15625 1.5625 27.140625 1.171875 
Q 19.140625 0.78125 13.46875 4.09375 
Q 7.8125 7.421875 5.65625 13.46875 
Q 3.515625 19.53125 4.296875 30.859375 
z
M 12.5 16.015625 
Q 19.53125 8.59375 25.390625 8.203125 
Q 31.25 7.8125 35.15625 12.109375 
Q 39.0625 16.40625 39.0625 24.609375 
Q 39.0625 32.8125 34.171875 35.9375 
Q 29.296875 39.0625 23.234375 38.28125 
Q 17.1875 37.5 14.453125 32.421875 
Q 11.71875 27.34375 12.109375 21.671875 
Q 12.5 16.015625 19.53125 8.59375 
z
" id="SimHei-36"/>
      </defs>
      <g transform="translate(408.768686 602.7702)scale(0.1 -0.1)">
       <use xlink:href="#SimHei-36"/>
      </g>
     </g>
    </g>
    <g id="xtick_5">
     <g id="line2d_5">
      <g>
       <use style="stroke:#000000;stroke-width:0.8;" x="508.01943" xlink:href="#mad8366193e" y="588.8952"/>
      </g>
     </g>
     <g id="text_5">
      <!-- 8 -->
      <defs>
       <path d="M 2.734375 16.796875 
Q 2.734375 26.171875 5.078125 30.65625 
Q 7.421875 35.15625 12.890625 37.890625 
Q 8.203125 40.625 6.640625 43.9375 
Q 5.078125 47.265625 4.875 51.5625 
Q 4.6875 55.859375 6.046875 58.984375 
Q 7.421875 62.109375 10.15625 64.84375 
Q 12.890625 67.578125 16.203125 68.546875 
Q 19.53125 69.53125 23.4375 69.53125 
Q 27.34375 69.53125 30.46875 68.75 
Q 33.59375 67.96875 37.109375 65.421875 
Q 40.625 62.890625 42.1875 58.203125 
Q 43.75 53.515625 41.984375 47.265625 
Q 40.234375 41.015625 32.8125 37.5 
Q 39.453125 35.546875 42.1875 31.4375 
Q 44.921875 27.34375 44.921875 21.484375 
Q 44.921875 15.625 43.15625 12.109375 
Q 41.40625 8.59375 39.25 6.25 
Q 37.109375 3.90625 33.390625 2.53125 
Q 29.6875 1.171875 24.015625 1.171875 
Q 18.359375 1.171875 14.25 2.53125 
Q 10.15625 3.90625 7.421875 6.640625 
Q 4.6875 9.375 3.703125 13.078125 
Q 2.734375 16.796875 2.734375 26.171875 
z
M 10.9375 26.5625 
Q 10.546875 17.1875 12.296875 13.671875 
Q 14.0625 10.15625 18.75 9.171875 
Q 23.4375 8.203125 28.515625 9.375 
Q 33.59375 10.546875 35.546875 14.84375 
Q 37.5 19.140625 36.90625 23.4375 
Q 36.328125 27.734375 32.03125 30.65625 
Q 27.734375 33.59375 22.65625 33.203125 
Q 17.578125 32.8125 14.25 29.6875 
Q 10.9375 26.5625 10.546875 17.1875 
z
M 12.109375 56.25 
Q 12.109375 48.4375 14.84375 44.921875 
Q 17.578125 41.40625 23.4375 41.40625 
Q 29.296875 41.40625 32.21875 44.921875 
Q 35.15625 48.4375 34.953125 53.3125 
Q 34.765625 58.203125 31.4375 60.546875 
Q 28.125 62.890625 22.453125 62.5 
Q 16.796875 62.109375 14.453125 59.171875 
Q 12.109375 56.25 12.109375 48.4375 
z
" id="SimHei-38"/>
      </defs>
      <g transform="translate(505.51943 602.7702)scale(0.1 -0.1)">
       <use xlink:href="#SimHei-38"/>
      </g>
     </g>
    </g>
    <g id="xtick_6">
     <g id="line2d_6">
      <g>
       <use style="stroke:#000000;stroke-width:0.8;" x="604.770174" xlink:href="#mad8366193e" y="588.8952"/>
      </g>
     </g>
     <g id="text_6">
      <!-- 10 -->
      <defs>
       <path d="M 21.875 56.25 
Q 16.796875 51.171875 8.984375 46.484375 
L 8.984375 53.90625 
Q 18.75 60.546875 25 69.53125 
L 29.6875 69.53125 
L 29.6875 2.34375 
L 21.875 2.34375 
z
" id="SimHei-31"/>
      </defs>
      <g transform="translate(599.770174 602.7702)scale(0.1 -0.1)">
       <use xlink:href="#SimHei-31"/>
       <use x="50" xlink:href="#SimHei-30"/>
      </g>
     </g>
    </g>
    <g id="text_7">
     <!-- 编号 -->
     <defs>
      <path d="M 66.796875 82.03125 
Q 68.359375 75.78125 69.921875 70.3125 
L 90.234375 70.3125 
Q 89.84375 65.625 89.84375 59.765625 
Q 89.84375 53.90625 90.234375 49.609375 
L 48.4375 49.609375 
Q 48.046875 43.75 47.65625 39.84375 
L 93.75 39.84375 
Q 93.359375 33.59375 93.359375 26.5625 
L 93.359375 -0.390625 
Q 93.359375 -6.25 90.8125 -7.8125 
Q 88.28125 -9.375 82.421875 -10.9375 
Q 81.25 -6.25 78.90625 -2.34375 
Q 84.375 -2.34375 85.546875 -1.75 
Q 86.71875 -1.171875 86.71875 2.34375 
L 86.71875 15.625 
L 78.90625 15.625 
Q 78.90625 7.03125 79.296875 -0.78125 
L 72.265625 -0.78125 
Q 72.65625 7.03125 72.65625 15.625 
L 64.84375 15.625 
Q 64.84375 3.515625 65.234375 -1.171875 
L 58.203125 -1.171875 
Q 58.59375 3.515625 58.59375 15.625 
L 50.78125 15.625 
L 50.78125 -10.15625 
L 43.359375 -10.15625 
Q 44.140625 -2.734375 44.140625 4.296875 
L 44.140625 25.390625 
Q 41.015625 16.796875 36.71875 9.375 
Q 33.984375 14.453125 31.640625 17.1875 
Q 35.15625 21.875 37.109375 26.5625 
Q 39.0625 31.25 40.234375 39.453125 
Q 41.40625 47.65625 41.40625 55.859375 
Q 41.40625 64.0625 41.015625 70.3125 
L 61.328125 70.3125 
Q 60.546875 74.609375 58.59375 79.6875 
Q 63.671875 80.859375 66.796875 82.03125 
z
M 28.515625 76.171875 
Q 26.171875 73.828125 21.671875 64.84375 
Q 17.1875 55.859375 13.671875 49.21875 
L 24.609375 49.609375 
Q 26.953125 54.296875 29.296875 60.15625 
Q 32.8125 57.421875 37.109375 54.6875 
Q 33.59375 51.171875 29.09375 43.9375 
Q 24.609375 36.71875 16.796875 26.171875 
Q 25 26.953125 32.421875 28.125 
L 31.640625 21.09375 
Q 26.953125 20.703125 21.09375 19.921875 
Q 15.234375 19.140625 8.59375 16.40625 
Q 7.8125 20.703125 6.25 24.609375 
Q 9.375 25 12.890625 30.078125 
Q 16.40625 35.15625 21.875 43.75 
Q 18.359375 43.75 14.84375 43.359375 
Q 11.328125 42.96875 7.03125 41.40625 
Q 5.859375 46.09375 4.296875 49.609375 
Q 8.203125 50.390625 12.5 60.34375 
Q 16.796875 70.3125 19.140625 80.078125 
Q 23.828125 77.34375 28.515625 76.171875 
z
M 83.203125 55.078125 
L 83.203125 64.84375 
L 48.4375 64.84375 
L 48.4375 55.078125 
z
M 32.8125 12.5 
Q 32.421875 8.203125 32.8125 4.6875 
Q 24.609375 2.734375 18.9375 0.78125 
Q 13.28125 -1.171875 6.25 -4.6875 
L 3.125 4.6875 
Q 7.8125 5.078125 16.203125 7.21875 
Q 24.609375 9.375 32.8125 12.5 
z
M 72.65625 21.09375 
L 72.65625 34.375 
L 64.84375 34.375 
L 64.84375 21.09375 
z
M 86.71875 21.09375 
L 86.71875 34.375 
L 78.90625 34.375 
L 78.90625 21.09375 
z
M 58.59375 21.09375 
L 58.59375 34.375 
L 50.78125 34.375 
L 50.78125 21.09375 
z
" id="SimHei-7f16"/>
      <path d="M 78.515625 76.953125 
Q 78.125 71.09375 78.125 63.671875 
Q 78.125 56.25 78.515625 49.609375 
L 21.875 49.609375 
Q 22.265625 55.078125 22.265625 62.5 
Q 22.265625 70.3125 21.875 76.953125 
L 78.515625 76.953125 
z
M 80.859375 41.015625 
Q 88.28125 41.015625 94.140625 41.40625 
L 94.140625 34.375 
Q 88.28125 34.765625 80.859375 34.765625 
L 38.28125 34.765625 
Q 36.71875 29.296875 34.765625 22.65625 
L 80.859375 22.65625 
Q 79.6875 16.40625 79.09375 12.109375 
Q 78.515625 7.8125 77.34375 1.75 
Q 76.171875 -4.296875 72.65625 -6.4375 
Q 69.140625 -8.59375 50.390625 -9.765625 
Q 48.828125 -5.46875 46.484375 -0.78125 
Q 60.546875 -1.171875 64.25 -0.78125 
Q 67.96875 -0.390625 69.140625 3.3125 
Q 70.3125 7.03125 71.484375 16.015625 
L 25 16.015625 
Q 28.515625 25.390625 30.46875 34.765625 
L 21.09375 34.765625 
Q 12.890625 34.765625 5.859375 34.375 
L 5.859375 41.40625 
Q 12.890625 41.015625 21.09375 41.015625 
z
M 70.703125 55.859375 
L 70.703125 70.703125 
L 29.6875 70.703125 
L 29.6875 55.859375 
z
" id="SimHei-53f7"/>
     </defs>
     <g transform="translate(377.081 616.067075)scale(0.1 -0.1)">
      <use xlink:href="#SimHei-7f16"/>
      <use x="100" xlink:href="#SimHei-53f7"/>
     </g>
    </g>
   </g>
   <g id="matplotlib.axis_2">
    <g id="ytick_1">
     <g id="line2d_7">
      <defs>
       <path d="M 0 0 
L -3.5 0 
" id="m6ac3018305" style="stroke:#000000;stroke-width:0.8;"/>
      </defs>
      <g>
       <use style="stroke:#000000;stroke-width:0.8;" x="94.41" xlink:href="#m6ac3018305" y="565.7364"/>
      </g>
     </g>
     <g id="text_8">
      <!-- 0.00 -->
      <defs>
       <path d="M 16.796875 1.953125 
L 7.8125 1.953125 
L 7.8125 10.546875 
L 16.796875 10.546875 
z
" id="SimHei-2e"/>
      </defs>
      <g transform="translate(67.41 569.1739)scale(0.1 -0.1)">
       <use xlink:href="#SimHei-30"/>
       <use x="50" xlink:href="#SimHei-2e"/>
       <use x="100" xlink:href="#SimHei-30"/>
       <use x="150" xlink:href="#SimHei-30"/>
      </g>
     </g>
    </g>
    <g id="ytick_2">
     <g id="line2d_8">
      <g>
       <use style="stroke:#000000;stroke-width:0.8;" x="94.41" xlink:href="#m6ac3018305" y="476.248338"/>
      </g>
     </g>
     <g id="text_9">
      <!-- 0.02 -->
      <g transform="translate(67.41 479.685838)scale(0.1 -0.1)">
       <use xlink:href="#SimHei-30"/>
       <use x="50" xlink:href="#SimHei-2e"/>
       <use x="100" xlink:href="#SimHei-30"/>
       <use x="150" xlink:href="#SimHei-32"/>
      </g>
     </g>
    </g>
    <g id="ytick_3">
     <g id="line2d_9">
      <g>
       <use style="stroke:#000000;stroke-width:0.8;" x="94.41" xlink:href="#m6ac3018305" y="386.760276"/>
      </g>
     </g>
     <g id="text_10">
      <!-- 0.04 -->
      <g transform="translate(67.41 390.197776)scale(0.1 -0.1)">
       <use xlink:href="#SimHei-30"/>
       <use x="50" xlink:href="#SimHei-2e"/>
       <use x="100" xlink:href="#SimHei-30"/>
       <use x="150" xlink:href="#SimHei-34"/>
      </g>
     </g>
    </g>
    <g id="ytick_4">
     <g id="line2d_10">
      <g>
       <use style="stroke:#000000;stroke-width:0.8;" x="94.41" xlink:href="#m6ac3018305" y="297.272214"/>
      </g>
     </g>
     <g id="text_11">
      <!-- 0.06 -->
      <g transform="translate(67.41 300.709714)scale(0.1 -0.1)">
       <use xlink:href="#SimHei-30"/>
       <use x="50" xlink:href="#SimHei-2e"/>
       <use x="100" xlink:href="#SimHei-30"/>
       <use x="150" xlink:href="#SimHei-36"/>
      </g>
     </g>
    </g>
    <g id="ytick_5">
     <g id="line2d_11">
      <g>
       <use style="stroke:#000000;stroke-width:0.8;" x="94.41" xlink:href="#m6ac3018305" y="207.784152"/>
      </g>
     </g>
     <g id="text_12">
      <!-- 0.08 -->
      <g transform="translate(67.41 211.221652)scale(0.1 -0.1)">
       <use xlink:href="#SimHei-30"/>
       <use x="50" xlink:href="#SimHei-2e"/>
       <use x="100" xlink:href="#SimHei-30"/>
       <use x="150" xlink:href="#SimHei-38"/>
      </g>
     </g>
    </g>
    <g id="ytick_6">
     <g id="line2d_12">
      <g>
       <use style="stroke:#000000;stroke-width:0.8;" x="94.41" xlink:href="#m6ac3018305" y="118.29609"/>
      </g>
     </g>
     <g id="text_13">
      <!-- 0.10 -->
      <g transform="translate(67.41 121.73359)scale(0.1 -0.1)">
       <use xlink:href="#SimHei-30"/>
       <use x="50" xlink:href="#SimHei-2e"/>
       <use x="100" xlink:href="#SimHei-31"/>
       <use x="150" xlink:href="#SimHei-30"/>
      </g>
     </g>
    </g>
    <g id="text_14">
     <!-- 方差数值 -->
     <defs>
      <path d="M 6.640625 62.109375 
Q 12.890625 61.71875 20.3125 61.71875 
L 78.515625 61.71875 
Q 87.890625 61.71875 93.75 62.109375 
L 93.75 54.296875 
Q 88.671875 54.6875 79.6875 54.6875 
L 39.453125 54.6875 
Q 39.453125 50.390625 39.0625 39.0625 
L 82.8125 39.0625 
Q 82.03125 33.984375 81.25 24.21875 
L 78.90625 2.734375 
Q 78.125 -4.296875 72.265625 -6.4375 
Q 66.40625 -8.59375 55.078125 -9.765625 
Q 54.6875 -4.6875 51.953125 -0.78125 
Q 60.9375 -1.171875 65.625 0 
Q 70.3125 1.171875 71.484375 6.640625 
L 73.828125 32.03125 
L 38.671875 32.03125 
Q 37.109375 21.09375 33.78125 13.671875 
Q 30.46875 6.25 24.609375 0 
Q 18.75 -6.25 12.890625 -10.9375 
Q 11.328125 -8.59375 5.859375 -5.46875 
Q 10.9375 -2.734375 16.59375 3.125 
Q 22.265625 8.984375 25.96875 16.40625 
Q 29.6875 23.828125 30.65625 32.8125 
Q 31.640625 41.796875 31.640625 54.6875 
L 20.703125 54.6875 
Q 12.109375 54.6875 6.640625 54.296875 
z
M 48.046875 63.671875 
Q 44.53125 71.484375 40.234375 78.125 
Q 43.75 80.078125 47.265625 82.421875 
Q 51.5625 75.78125 55.859375 67.96875 
Q 51.953125 66.40625 48.046875 63.671875 
z
" id="SimHei-65b9"/>
      <path d="M 73.828125 77.734375 
Q 70.3125 73.828125 66.40625 66.796875 
L 75.78125 66.796875 
Q 85.15625 66.796875 91.015625 67.1875 
L 91.015625 60.15625 
Q 84.765625 60.546875 75.78125 60.546875 
L 51.171875 60.546875 
Q 50.390625 56.25 49.21875 51.171875 
L 70.703125 51.171875 
Q 79.296875 51.171875 86.328125 51.5625 
L 86.328125 44.53125 
Q 79.296875 44.921875 70.3125 44.921875 
L 47.65625 44.921875 
Q 46.484375 41.40625 44.53125 36.328125 
L 80.078125 36.328125 
Q 88.671875 36.328125 94.140625 36.71875 
L 94.140625 29.6875 
Q 89.0625 30.078125 80.46875 30.078125 
L 41.40625 30.078125 
Q 37.890625 24.21875 35.15625 20.3125 
Q 41.40625 19.921875 48.4375 19.921875 
L 70.703125 19.921875 
Q 77.734375 19.921875 83.59375 20.3125 
L 83.59375 13.28125 
Q 77.734375 13.671875 71.484375 13.671875 
L 61.328125 13.671875 
L 61.328125 -0.78125 
L 78.125 -0.78125 
Q 81.25 -0.78125 92.1875 -0.390625 
L 92.1875 -7.8125 
Q 82.421875 -7.421875 78.515625 -7.421875 
L 32.8125 -7.421875 
Q 26.5625 -7.421875 21.875 -7.8125 
L 21.875 -0.390625 
Q 27.734375 -0.78125 33.203125 -0.78125 
L 53.515625 -0.78125 
L 53.515625 13.671875 
L 48.4375 13.671875 
Q 41.015625 13.671875 33.984375 13.28125 
L 33.984375 18.75 
Q 30.078125 13.671875 23.234375 7.421875 
Q 16.40625 1.171875 9.765625 -3.90625 
Q 6.640625 -0.390625 3.125 2.34375 
Q 11.71875 7.421875 19.71875 14.453125 
Q 27.734375 21.484375 32.8125 30.078125 
L 20.703125 30.078125 
Q 11.71875 30.078125 5.859375 29.6875 
L 5.859375 36.71875 
Q 11.71875 36.328125 21.09375 36.328125 
L 36.328125 36.328125 
Q 38.28125 40.234375 39.84375 44.921875 
L 26.953125 44.921875 
Q 21.484375 44.921875 15.625 44.53125 
L 15.625 51.5625 
Q 23.4375 51.171875 26.5625 51.171875 
L 41.40625 51.171875 
Q 42.578125 55.859375 43.359375 60.546875 
L 23.4375 60.546875 
Q 17.1875 60.546875 10.15625 60.15625 
L 10.15625 67.1875 
Q 16.015625 66.796875 22.265625 66.796875 
L 35.546875 66.796875 
Q 32.421875 73.046875 28.90625 77.34375 
Q 31.640625 78.90625 35.15625 81.640625 
Q 38.28125 77.734375 42.578125 71.09375 
Q 39.453125 69.53125 36.328125 66.796875 
L 58.59375 66.796875 
Q 62.5 73.4375 64.84375 82.03125 
Q 68.75 79.6875 73.828125 77.734375 
z
" id="SimHei-5dee"/>
      <path d="M 70.703125 76.953125 
Q 69.921875 75 68.75 71.671875 
Q 67.578125 68.359375 65.234375 59.765625 
L 83.203125 59.765625 
Q 87.109375 59.765625 92.578125 60.15625 
L 92.578125 53.125 
Q 88.28125 53.515625 85.9375 53.515625 
Q 85.9375 47.265625 83.78125 33.78125 
Q 81.640625 20.3125 76.171875 10.546875 
Q 80.078125 5.859375 84.953125 2.140625 
Q 89.84375 -1.5625 94.140625 -3.125 
Q 89.453125 -6.640625 87.890625 -9.765625 
Q 83.203125 -7.03125 79.296875 -3.515625 
Q 75.390625 0 71.484375 5.078125 
Q 67.1875 0.390625 62.296875 -2.921875 
Q 57.421875 -6.25 50 -10.15625 
Q 48.046875 -6.640625 44.53125 -4.6875 
Q 50.390625 -2.34375 57.03125 1.953125 
Q 63.671875 6.25 67.1875 10.546875 
Q 64.453125 16.015625 61.90625 22.265625 
Q 59.375 28.515625 57.421875 38.671875 
Q 56.25 35.546875 53.515625 30.46875 
Q 50.78125 32.03125 46.875 33.59375 
Q 53.125 44.53125 57.03125 57.421875 
Q 60.9375 70.3125 62.109375 79.6875 
Q 66.796875 77.734375 70.703125 76.953125 
z
M 32.8125 35.15625 
Q 31.25 33.59375 29.296875 30.078125 
L 50.78125 30.078125 
Q 48.4375 20.3125 42.578125 10.546875 
Q 48.828125 8.203125 52.34375 6.25 
Q 50.390625 3.515625 48.828125 0.390625 
Q 45.3125 2.734375 38.28125 5.078125 
Q 30.46875 -3.515625 11.328125 -10.15625 
Q 9.375 -5.859375 6.25 -4.296875 
Q 24.609375 0 31.25 7.421875 
Q 20.3125 10.15625 13.28125 12.109375 
Q 15.625 15.625 19.53125 23.828125 
Q 15.625 23.828125 6.640625 23.4375 
L 6.640625 30.46875 
Q 14.0625 30.078125 21.875 30.078125 
Q 23.4375 33.59375 24.21875 37.890625 
Q 28.515625 36.328125 32.8125 35.15625 
z
M 27.734375 61.71875 
Q 27.734375 71.09375 27.34375 79.6875 
L 35.15625 79.6875 
Q 34.765625 71.484375 34.765625 61.71875 
Q 48.046875 61.71875 53.515625 62.109375 
L 53.515625 55.078125 
Q 48.046875 55.46875 34.765625 55.46875 
Q 34.765625 44.140625 35.15625 37.890625 
L 27.34375 37.890625 
Q 27.734375 43.359375 27.734375 51.5625 
Q 25.78125 48.4375 20.3125 43.546875 
Q 14.84375 38.671875 10.15625 35.9375 
Q 8.203125 39.453125 4.296875 41.015625 
Q 7.8125 42.1875 13.671875 46.484375 
Q 19.53125 50.78125 22.65625 55.46875 
Q 14.84375 55.46875 7.8125 55.078125 
L 7.8125 62.109375 
Q 14.453125 61.71875 27.734375 61.71875 
z
M 62.109375 49.609375 
Q 65.625 26.5625 71.875 17.578125 
Q 75.78125 26.5625 77.140625 35.734375 
Q 78.515625 44.921875 78.90625 53.515625 
L 63.671875 53.515625 
L 62.109375 49.609375 
z
M 22.65625 15.625 
Q 27.34375 14.453125 35.546875 12.5 
Q 38.671875 16.40625 41.40625 23.828125 
L 26.953125 23.828125 
Q 25 19.921875 22.65625 15.625 
z
M 51.953125 75.390625 
Q 50 72.265625 48.828125 69.53125 
Q 47.65625 66.796875 45.703125 62.890625 
Q 42.578125 64.453125 39.453125 65.234375 
Q 42.578125 70.3125 45.3125 78.125 
Q 49.21875 76.171875 51.953125 75.390625 
z
M 40.234375 52.734375 
Q 45.3125 47.65625 50 42.578125 
Q 47.65625 40.625 44.921875 37.890625 
Q 39.453125 44.53125 35.9375 48.4375 
Q 38.28125 50.390625 40.234375 52.734375 
z
M 14.453125 78.125 
Q 19.921875 72.65625 23.4375 67.1875 
L 17.578125 63.671875 
Q 14.84375 69.140625 9.375 73.828125 
Q 12.890625 76.171875 14.453125 78.125 
z
" id="SimHei-6570"/>
      <path d="M 57.421875 69.53125 
L 57.421875 79.6875 
Q 62.109375 79.296875 67.96875 78.90625 
Q 66.015625 76.171875 65.625 69.53125 
L 80.078125 69.53125 
Q 86.71875 69.53125 91.796875 69.921875 
L 91.796875 62.890625 
Q 86.328125 63.28125 80.078125 63.28125 
L 65.234375 63.28125 
L 64.453125 54.6875 
L 84.375 54.6875 
Q 83.984375 50 83.984375 42.1875 
L 83.984375 2.34375 
Q 91.796875 2.34375 95.3125 2.734375 
L 95.3125 -4.296875 
Q 90.234375 -3.90625 81.25 -3.90625 
L 44.53125 -3.90625 
Q 35.546875 -3.90625 29.6875 -4.296875 
L 29.6875 2.734375 
Q 33.203125 2.34375 40.625 2.34375 
L 40.625 42.1875 
Q 40.625 49.609375 40.234375 54.6875 
L 56.25 54.6875 
L 57.03125 63.28125 
L 50 63.28125 
Q 40.234375 63.28125 34.765625 62.890625 
L 34.765625 69.921875 
Q 39.84375 69.53125 50 69.53125 
z
M 34.765625 76.5625 
Q 31.640625 73.046875 25.78125 58.59375 
L 25.78125 7.03125 
Q 25.78125 -1.171875 26.171875 -8.59375 
L 17.96875 -8.59375 
Q 18.359375 -1.953125 18.359375 5.859375 
L 18.359375 46.09375 
Q 13.671875 38.28125 9.765625 33.59375 
Q 6.640625 37.890625 3.90625 40.234375 
Q 7.8125 44.140625 14.640625 55.265625 
Q 21.484375 66.40625 25.390625 80.46875 
Q 30.859375 77.734375 34.765625 76.5625 
z
M 76.953125 41.40625 
L 76.953125 49.21875 
L 48.046875 49.21875 
L 48.046875 41.40625 
z
M 76.953125 2.34375 
L 76.953125 9.765625 
L 48.046875 9.765625 
L 48.046875 2.34375 
z
M 76.953125 15.625 
L 76.953125 22.65625 
L 48.046875 22.65625 
L 48.046875 15.625 
z
M 76.953125 28.515625 
L 76.953125 35.546875 
L 48.046875 35.546875 
L 48.046875 28.515625 
z
" id="SimHei-503c"/>
     </defs>
     <g transform="translate(62.16 354.1484)rotate(-90)scale(0.1 -0.1)">
      <use xlink:href="#SimHei-65b9"/>
      <use x="100" xlink:href="#SimHei-5dee"/>
      <use x="200" xlink:href="#SimHei-6570"/>
      <use x="300" xlink:href="#SimHei-503c"/>
     </g>
    </g>
   </g>
   <g id="line2d_13">
    <path clip-path="url(#p175b6eddd5)" d="M 121.016455 543.315409 
L 169.391826 531.722515 
L 217.767198 529.478735 
L 266.14257 293.073066 
L 314.517942 517.892317 
L 362.893314 102.5604 
L 411.268686 506.260611 
L 459.644058 354.858481 
L 508.01943 443.001037 
L 556.394802 565.7364 
L 604.770174 455.386434 
L 653.145545 452.324843 
" style="fill:none;stroke:#1f77b4;stroke-linecap:square;stroke-width:1.5;"/>
   </g>
   <g id="line2d_14">
    <path clip-path="url(#p175b6eddd5)" d="M 121.016455 557.882004 
L 169.391826 537.424086 
L 217.767198 535.957575 
L 266.14257 338.778202 
L 314.517942 555.999614 
L 362.893314 272.112098 
L 411.268686 555.189824 
L 459.644058 431.982194 
L 508.01943 515.627638 
L 556.394802 565.7364 
L 604.770174 552.38447 
L 653.145545 553.576648 
" style="fill:none;stroke:#ff7f0e;stroke-linecap:square;stroke-width:1.5;"/>
   </g>
   <g id="patch_3">
    <path d="M 94.41 588.8952 
L 94.41 79.4016 
" style="fill:none;stroke:#000000;stroke-linecap:square;stroke-linejoin:miter;stroke-width:0.8;"/>
   </g>
   <g id="patch_4">
    <path d="M 679.752 588.8952 
L 679.752 79.4016 
" style="fill:none;stroke:#000000;stroke-linecap:square;stroke-linejoin:miter;stroke-width:0.8;"/>
   </g>
   <g id="patch_5">
    <path d="M 94.41 588.8952 
L 679.752 588.8952 
" style="fill:none;stroke:#000000;stroke-linecap:square;stroke-linejoin:miter;stroke-width:0.8;"/>
   </g>
   <g id="patch_6">
    <path d="M 94.41 79.4016 
L 679.752 79.4016 
" style="fill:none;stroke:#000000;stroke-linecap:square;stroke-linejoin:miter;stroke-width:0.8;"/>
   </g>
   <g id="text_15">
    <!-- 十二种信号修正前后均方误差对比 -->
    <defs>
     <path d="M 45.703125 44.921875 
L 45.703125 66.796875 
Q 45.703125 74.21875 45.3125 80.078125 
L 54.6875 80.078125 
Q 54.296875 74.21875 54.296875 67.1875 
L 54.296875 44.921875 
L 80.46875 44.921875 
Q 86.71875 44.921875 95.3125 45.3125 
L 95.3125 37.5 
Q 87.109375 37.890625 80.46875 37.890625 
L 54.296875 37.890625 
L 54.296875 10.546875 
Q 54.296875 2.734375 54.6875 -7.8125 
L 45.3125 -7.8125 
Q 45.703125 2.734375 45.703125 10.9375 
L 45.703125 37.890625 
L 19.921875 37.890625 
Q 13.671875 37.890625 5.078125 37.5 
L 5.078125 45.3125 
Q 13.671875 44.921875 20.3125 44.921875 
z
" id="SimHei-5341"/>
     <path d="M 78.90625 9.765625 
Q 88.28125 9.765625 94.140625 10.546875 
L 94.140625 0.78125 
Q 87.890625 1.171875 78.90625 1.171875 
L 22.265625 1.171875 
Q 12.109375 1.171875 5.46875 0.78125 
L 5.46875 10.15625 
Q 12.5 9.765625 21.875 9.765625 
z
M 67.96875 64.84375 
Q 76.5625 65.234375 83.59375 65.625 
L 83.59375 55.859375 
Q 76.5625 56.25 68.359375 56.25 
L 32.03125 56.25 
Q 22.65625 56.25 15.625 55.859375 
L 15.625 65.234375 
Q 22.65625 64.84375 31.640625 64.84375 
z
" id="SimHei-4e8c"/>
     <path d="M 66.015625 62.5 
Q 66.015625 77.734375 65.625 82.421875 
L 73.828125 82.421875 
Q 73.4375 78.125 73.4375 62.5 
L 93.75 62.5 
Q 93.359375 58.203125 93.359375 50.78125 
L 93.359375 24.21875 
Q 93.359375 19.921875 93.75 14.453125 
L 85.9375 14.453125 
L 85.9375 22.265625 
L 73.4375 22.265625 
L 73.4375 5.859375 
Q 73.4375 -4.296875 73.828125 -10.9375 
L 65.625 -10.9375 
Q 66.015625 -4.296875 66.015625 5.859375 
L 66.015625 22.265625 
L 53.515625 22.265625 
L 53.515625 12.890625 
L 45.703125 12.890625 
Q 46.09375 17.578125 46.09375 23.4375 
L 46.09375 50 
Q 46.09375 58.203125 45.703125 62.5 
L 66.015625 62.5 
z
M 5.46875 50.78125 
Q 11.328125 50.390625 19.140625 50.390625 
L 22.265625 50.390625 
L 22.265625 67.578125 
Q 18.359375 66.40625 8.984375 64.453125 
Q 7.421875 67.96875 5.46875 71.484375 
Q 14.0625 71.875 22.0625 74.015625 
Q 30.078125 76.171875 36.71875 79.6875 
Q 39.0625 76.5625 42.578125 72.265625 
Q 38.671875 71.875 35.9375 71.09375 
Q 33.203125 70.3125 29.6875 69.53125 
L 29.6875 50.390625 
Q 34.765625 50.390625 42.1875 50.78125 
L 42.1875 43.75 
Q 34.765625 44.140625 29.6875 44.140625 
L 29.6875 3.515625 
Q 29.6875 -1.953125 30.078125 -10.15625 
L 21.875 -10.15625 
Q 22.265625 -1.953125 22.265625 3.515625 
L 22.265625 29.296875 
Q 19.140625 21.484375 16.59375 16.796875 
Q 14.0625 12.109375 9.765625 5.46875 
Q 6.640625 9.765625 3.90625 13.28125 
Q 9.375 19.140625 13.859375 26.953125 
Q 18.359375 34.765625 20.3125 44.140625 
L 14.453125 44.140625 
Q 8.984375 44.140625 5.46875 43.75 
z
M 66.015625 28.515625 
L 66.015625 56.25 
L 53.515625 56.25 
L 53.515625 28.515625 
z
M 85.9375 28.515625 
L 85.9375 56.25 
L 73.4375 56.25 
L 73.4375 28.515625 
z
M 37.109375 38.671875 
Q 38.28125 35.9375 40.234375 33.203125 
Q 42.1875 30.46875 44.53125 25.390625 
Q 41.015625 23.828125 37.890625 21.484375 
Q 35.9375 25.78125 34.5625 28.703125 
Q 33.203125 31.640625 30.859375 34.765625 
Q 33.203125 36.328125 37.109375 38.671875 
z
" id="SimHei-79cd"/>
     <path d="M 88.28125 24.609375 
Q 87.890625 19.921875 87.890625 8.984375 
Q 87.890625 -1.5625 88.28125 -7.03125 
L 80.859375 -7.03125 
L 80.859375 -0.390625 
L 47.265625 -0.390625 
L 47.265625 -8.59375 
L 39.453125 -8.59375 
Q 39.84375 -2.734375 39.84375 7.8125 
Q 39.84375 18.75 39.453125 24.609375 
L 88.28125 24.609375 
z
M 33.203125 77.734375 
Q 30.859375 75.390625 25.78125 62.109375 
L 25.78125 8.59375 
Q 25.78125 -3.125 26.171875 -9.765625 
L 17.578125 -9.765625 
Q 18.75 -2.734375 18.75 8.984375 
L 18.75 48.4375 
Q 14.0625 39.0625 9.765625 32.8125 
Q 7.421875 36.71875 3.90625 39.0625 
Q 8.203125 43.75 14.453125 55.65625 
Q 20.703125 67.578125 23.828125 80.859375 
Q 28.125 79.296875 33.203125 77.734375 
z
M 80.859375 5.859375 
L 80.859375 19.140625 
L 47.265625 19.140625 
L 47.265625 5.859375 
z
M 94.921875 60.9375 
Q 87.109375 61.328125 64.0625 61.328125 
Q 41.015625 61.328125 32.8125 60.9375 
L 32.8125 67.578125 
L 94.921875 67.578125 
z
M 89.0625 46.875 
Q 82.421875 47.265625 64.84375 47.265625 
Q 47.265625 47.265625 38.671875 46.875 
L 38.671875 53.515625 
Q 46.09375 53.125 64.0625 53.125 
Q 82.421875 53.125 89.0625 53.515625 
z
M 89.0625 33.203125 
Q 83.59375 33.59375 65.234375 33.59375 
Q 47.265625 33.59375 38.671875 33.203125 
L 38.671875 39.84375 
Q 46.875 39.453125 65.234375 39.453125 
Q 83.984375 39.453125 89.0625 39.84375 
z
M 62.890625 81.25 
Q 64.0625 78.90625 65.234375 76.171875 
Q 66.40625 73.4375 67.578125 70.3125 
Q 64.0625 69.140625 60.546875 68.359375 
Q 57.8125 76.5625 55.859375 78.515625 
Q 59.765625 80.078125 62.890625 81.25 
z
" id="SimHei-4fe1"/>
     <path d="M 64.84375 79.296875 
Q 61.328125 75.78125 59.765625 71.484375 
L 87.5 71.484375 
Q 84.765625 66.015625 81.640625 60.734375 
Q 78.515625 55.46875 73.828125 50.78125 
Q 85.546875 43.359375 96.875 43.75 
Q 93.75 41.015625 92.578125 35.9375 
Q 78.90625 38.28125 68.75 46.09375 
Q 53.90625 36.71875 42.96875 33.59375 
Q 41.40625 37.109375 37.109375 40.625 
Q 49.21875 42.578125 63.28125 50.78125 
Q 58.203125 54.6875 53.90625 60.9375 
Q 50.390625 55.078125 45.703125 48.828125 
Q 42.96875 51.171875 39.453125 52.734375 
Q 45.3125 58.984375 50 68.359375 
Q 54.6875 77.734375 55.46875 82.8125 
Q 59.375 80.859375 64.84375 79.296875 
z
M 31.25 78.125 
Q 28.515625 76.171875 23.046875 59.765625 
L 23.046875 9.375 
Q 23.046875 -3.125 23.4375 -8.59375 
L 16.015625 -8.59375 
Q 16.40625 -0.78125 16.40625 8.203125 
L 16.40625 48.828125 
Q 14.453125 43.75 9.375 35.9375 
Q 7.8125 37.890625 3.515625 41.40625 
Q 7.03125 44.921875 13.46875 57.8125 
Q 19.921875 70.703125 22.265625 81.640625 
Q 25 80.078125 31.25 78.125 
z
M 95.3125 10.9375 
Q 90.625 8.984375 77.34375 1.953125 
Q 64.0625 -5.078125 43.359375 -10.546875 
Q 42.1875 -6.640625 37.890625 -3.515625 
Q 55.46875 0.78125 68.546875 6.25 
Q 81.640625 11.71875 88.671875 17.578125 
Q 92.578125 12.890625 95.3125 10.9375 
z
M 36.328125 61.71875 
Q 35.9375 57.421875 35.9375 51.953125 
L 35.9375 18.75 
Q 35.9375 13.671875 36.328125 9.765625 
L 28.90625 9.765625 
Q 29.296875 14.0625 29.296875 18.75 
L 29.296875 51.953125 
Q 29.296875 57.03125 28.90625 61.71875 
L 36.328125 61.71875 
z
M 84.765625 23.828125 
Q 74.609375 17.1875 65.234375 12.109375 
Q 55.859375 7.03125 50.78125 4.296875 
Q 46.875 9.375 44.140625 10.9375 
Q 50.78125 12.5 60.546875 17.375 
Q 70.3125 22.265625 77.734375 29.6875 
Q 82.421875 25.390625 84.765625 23.828125 
z
M 75.390625 34.375 
Q 68.75 30.859375 50.78125 20.703125 
Q 48.828125 23.828125 45.3125 26.953125 
Q 64.0625 33.984375 69.140625 40.234375 
Q 72.65625 36.328125 75.390625 34.375 
z
M 68.75 54.6875 
Q 73.046875 59.765625 76.5625 65.625 
L 58.203125 65.625 
Q 64.0625 57.8125 68.75 54.6875 
z
" id="SimHei-4fee"/>
     <path d="M 75.390625 72.265625 
Q 82.8125 72.265625 88.671875 72.65625 
L 88.671875 64.84375 
Q 82.8125 65.234375 74.609375 65.234375 
L 55.859375 65.234375 
L 55.859375 40.625 
L 75.78125 40.625 
Q 82.03125 40.625 86.71875 41.015625 
L 86.71875 33.59375 
Q 82.03125 33.984375 75.78125 33.984375 
L 55.859375 33.984375 
L 55.859375 2.34375 
L 75.78125 2.34375 
Q 83.984375 2.34375 92.1875 2.734375 
L 92.1875 -5.078125 
Q 83.984375 -4.6875 77.734375 -4.6875 
L 18.359375 -4.6875 
Q 10.9375 -4.6875 5.859375 -5.078125 
L 5.859375 2.734375 
Q 10.9375 2.34375 18.359375 2.34375 
L 20.703125 2.34375 
L 20.703125 36.71875 
Q 20.703125 43.75 20.3125 48.828125 
L 29.296875 48.828125 
Q 28.90625 44.140625 28.90625 36.71875 
L 28.90625 2.34375 
L 48.046875 2.34375 
L 48.046875 65.234375 
L 25.390625 65.234375 
Q 17.96875 65.234375 12.5 64.84375 
L 12.5 72.65625 
Q 17.96875 72.265625 25.390625 72.265625 
z
" id="SimHei-6b63"/>
     <path d="M 32.421875 -1.5625 
Q 37.5 -1.5625 39.640625 -1.359375 
Q 41.796875 -1.171875 41.796875 1.5625 
L 41.796875 13.671875 
L 20.703125 13.671875 
L 20.703125 -10.15625 
L 12.5 -10.15625 
Q 13.28125 -3.125 13.28125 5.46875 
L 13.28125 36.71875 
Q 13.28125 44.53125 12.890625 51.5625 
L 49.609375 51.5625 
Q 49.21875 44.921875 49.21875 37.109375 
L 49.21875 -2.34375 
Q 49.21875 -6.25 46.09375 -7.421875 
Q 42.96875 -8.59375 35.546875 -9.765625 
Q 34.375 -5.46875 32.421875 -1.5625 
z
M 77.34375 79.296875 
Q 75.390625 77.734375 73.234375 74.21875 
Q 71.09375 70.703125 68.359375 66.015625 
L 84.375 66.015625 
Q 89.84375 66.015625 96.484375 66.40625 
L 96.484375 58.984375 
Q 90.234375 59.765625 82.8125 59.765625 
L 21.09375 59.765625 
Q 10.9375 59.765625 3.90625 58.984375 
L 3.90625 66.40625 
Q 12.109375 66.015625 21.09375 66.015625 
L 60.546875 66.015625 
Q 67.1875 78.515625 67.96875 82.8125 
Q 72.265625 80.46875 77.34375 79.296875 
z
M 68.359375 -1.171875 
Q 75.390625 -1.5625 77.140625 -1.171875 
Q 78.90625 -0.78125 78.90625 2.34375 
L 78.90625 42.96875 
Q 78.90625 47.65625 78.515625 53.125 
L 86.71875 53.125 
Q 86.328125 48.046875 86.328125 42.96875 
L 86.328125 -0.390625 
Q 86.328125 -5.46875 83.78125 -7.03125 
Q 81.25 -8.59375 71.875 -9.375 
Q 71.09375 -4.296875 68.359375 -1.171875 
z
M 58.984375 8.984375 
Q 59.375 14.84375 59.375 19.140625 
L 59.375 37.109375 
Q 59.375 43.359375 58.984375 48.046875 
L 67.1875 48.046875 
Q 66.796875 43.359375 66.796875 37.109375 
L 66.796875 19.53125 
Q 66.796875 13.671875 67.1875 8.984375 
z
M 41.796875 35.15625 
L 41.796875 45.703125 
L 20.703125 45.703125 
L 20.703125 35.15625 
z
M 41.796875 19.53125 
L 41.796875 29.296875 
L 20.703125 29.296875 
L 20.703125 19.53125 
z
M 34.765625 67.1875 
Q 33.203125 71.484375 27.34375 78.90625 
Q 31.640625 80.859375 34.375 82.8125 
Q 39.84375 75.78125 42.578125 71.09375 
Q 39.0625 69.53125 34.765625 67.1875 
z
" id="SimHei-524d"/>
     <path d="M 85.546875 33.59375 
Q 85.15625 27.34375 85.15625 12.109375 
Q 85.15625 -2.734375 85.9375 -8.59375 
L 77.734375 -8.59375 
L 77.734375 -0.390625 
L 39.453125 -0.390625 
L 39.453125 -9.375 
L 31.640625 -9.375 
Q 32.03125 -2.734375 32.03125 12.109375 
Q 32.03125 27.34375 31.640625 33.59375 
L 85.546875 33.59375 
z
M 80.859375 79.296875 
Q 82.8125 75 86.328125 70.703125 
Q 77.34375 69.921875 58.59375 67.765625 
Q 39.84375 65.625 24.609375 65.234375 
L 24.609375 52.734375 
L 81.25 52.734375 
Q 86.71875 52.734375 93.359375 53.125 
L 93.359375 45.3125 
Q 87.109375 45.703125 81.25 45.703125 
L 24.609375 45.703125 
Q 24.21875 37.890625 23.234375 29.296875 
Q 22.265625 20.703125 19.53125 11.125 
Q 16.796875 1.5625 12.5 -5.078125 
Q 10.15625 -3.125 3.515625 -0.78125 
Q 9.765625 5.078125 12.890625 16.59375 
Q 16.015625 28.125 16.40625 44.140625 
Q 16.796875 60.15625 16.796875 71.484375 
Q 35.9375 71.875 56.640625 74.609375 
Q 77.34375 77.34375 80.859375 79.296875 
z
M 77.734375 5.859375 
L 77.734375 26.953125 
L 39.453125 26.953125 
L 39.453125 5.859375 
z
" id="SimHei-540e"/>
     <path d="M 90.234375 4.296875 
Q 90.234375 -5.078125 83.78125 -7.03125 
Q 77.34375 -8.984375 69.140625 -9.375 
Q 68.359375 -4.296875 66.40625 0.390625 
Q 77.34375 -0.390625 80.078125 0.96875 
Q 82.8125 2.34375 82.8125 7.8125 
L 83.984375 57.8125 
L 55.46875 57.8125 
Q 53.515625 52.734375 50.96875 47.453125 
Q 48.4375 42.1875 45.703125 37.5 
Q 41.796875 39.84375 38.671875 41.015625 
Q 49.21875 56.640625 54.6875 81.25 
Q 59.375 79.6875 63.671875 78.515625 
Q 62.109375 76.171875 60.546875 72.65625 
Q 58.984375 69.140625 57.421875 64.453125 
L 92.1875 64.453125 
L 90.234375 4.296875 
z
M 19.53125 56.640625 
L 19.53125 68.359375 
Q 19.53125 74.609375 19.140625 79.6875 
L 27.734375 79.6875 
Q 27.34375 73.828125 27.34375 68.359375 
L 27.34375 56.640625 
L 29.6875 56.640625 
Q 34.375 56.640625 39.453125 57.03125 
L 39.453125 49.21875 
Q 34.375 49.609375 29.6875 49.609375 
L 27.34375 49.609375 
L 27.34375 17.1875 
L 39.0625 21.484375 
Q 38.671875 17.578125 39.453125 14.0625 
Q 19.140625 7.421875 15.03125 5.65625 
Q 10.9375 3.90625 7.421875 2.34375 
Q 5.859375 7.421875 3.90625 11.71875 
Q 8.984375 12.5 12.5 13.28125 
Q 16.015625 14.0625 19.53125 15.234375 
L 19.53125 49.609375 
L 17.578125 49.609375 
Q 13.28125 49.609375 6.25 49.21875 
L 6.25 57.03125 
Q 13.28125 56.640625 17.1875 56.640625 
z
M 77.34375 25.390625 
Q 73.046875 22.265625 64.640625 16.40625 
Q 56.25 10.546875 49.609375 4.6875 
Q 46.875 8.984375 44.53125 12.109375 
Q 52.34375 16.40625 58.78125 20.703125 
Q 65.234375 25 74.609375 32.421875 
Q 75.390625 28.90625 77.34375 25.390625 
z
M 58.984375 49.21875 
Q 64.453125 43.75 69.921875 35.9375 
Q 66.40625 33.203125 64.0625 30.859375 
Q 60.9375 36.328125 53.90625 44.140625 
Q 56.25 46.875 58.984375 49.21875 
z
" id="SimHei-5747"/>
     <path d="M 72.265625 42.96875 
Q 83.203125 42.96875 90.625 43.359375 
L 90.625 36.71875 
Q 82.8125 37.109375 72.265625 37.109375 
L 64.84375 37.109375 
Q 64.84375 33.203125 64.0625 25.78125 
L 78.515625 25.78125 
Q 87.109375 25.78125 95.3125 26.171875 
L 95.3125 19.140625 
Q 87.109375 19.53125 78.515625 19.53125 
L 66.40625 19.53125 
Q 71.484375 9.375 78.90625 4.484375 
Q 86.328125 -0.390625 95.703125 -1.953125 
Q 92.1875 -5.46875 90.234375 -9.765625 
Q 76.171875 -4.296875 69.53125 2.734375 
Q 62.890625 9.765625 60.9375 15.625 
Q 56.25 5.078125 48.828125 -0.96875 
Q 41.40625 -7.03125 31.640625 -10.546875 
Q 30.859375 -7.03125 26.953125 -3.125 
Q 38.671875 -1.171875 45.890625 6.828125 
Q 53.125 14.84375 54.296875 19.53125 
L 46.484375 19.53125 
Q 37.5 19.53125 31.640625 19.140625 
L 31.640625 26.171875 
Q 38.671875 25.78125 45.3125 25.78125 
L 56.25 25.78125 
Q 57.03125 31.640625 57.03125 37.109375 
L 51.953125 37.109375 
Q 41.796875 37.109375 34.765625 36.71875 
L 34.765625 43.359375 
Q 42.1875 42.96875 49.21875 42.96875 
z
M 84.765625 76.171875 
Q 84.375 71.09375 84.375 63.671875 
Q 84.375 56.25 84.765625 51.953125 
L 38.28125 51.953125 
Q 38.671875 55.859375 38.671875 63.28125 
Q 38.671875 70.703125 38.28125 76.171875 
L 84.765625 76.171875 
z
M 24.21875 51.953125 
Q 23.828125 46.875 23.828125 39.0625 
L 23.828125 10.546875 
L 29.6875 17.1875 
Q 31.640625 13.671875 34.765625 10.9375 
Q 26.171875 4.6875 19.53125 -5.078125 
Q 17.1875 -1.5625 12.890625 0.78125 
Q 16.015625 3.90625 16.40625 7.8125 
L 16.40625 45.3125 
Q 10.9375 45.3125 5.078125 44.921875 
L 5.078125 52.34375 
Q 8.59375 51.953125 11.71875 51.953125 
z
M 77.734375 57.8125 
L 77.734375 69.921875 
L 45.3125 69.921875 
L 45.3125 57.8125 
z
M 15.234375 80.078125 
Q 17.96875 78.125 29.6875 66.796875 
Q 26.953125 64.453125 24.21875 61.328125 
Q 17.96875 68.75 10.546875 74.609375 
Q 13.671875 77.734375 15.234375 80.078125 
z
" id="SimHei-8bef"/>
     <path d="M 8.203125 66.40625 
Q 14.0625 66.015625 21.875 66.015625 
L 44.140625 66.015625 
Q 40.234375 41.015625 34.375 27.34375 
Q 44.140625 13.671875 48.828125 6.25 
Q 46.09375 4.296875 42.578125 1.171875 
Q 34.375 15.234375 30.46875 20.3125 
Q 25.78125 12.109375 21.09375 6.640625 
Q 16.40625 1.171875 9.375 -5.46875 
Q 6.640625 -1.953125 3.125 -0.390625 
Q 9.765625 4.296875 15.234375 10.546875 
Q 20.703125 16.796875 25.78125 26.5625 
Q 16.40625 37.890625 8.59375 45.3125 
Q 10.9375 47.265625 14.0625 50.390625 
Q 25.390625 37.890625 29.296875 33.59375 
Q 34.375 47.65625 35.9375 59.765625 
L 21.875 59.765625 
Q 14.0625 59.765625 8.203125 59.375 
z
M 45.703125 57.8125 
Q 55.078125 57.421875 58.59375 57.421875 
L 75.390625 57.421875 
L 75.390625 69.140625 
Q 75.390625 74.21875 74.609375 80.078125 
L 83.59375 80.078125 
Q 83.203125 75.390625 83.203125 68.359375 
L 83.203125 57.421875 
Q 87.109375 57.421875 96.09375 57.8125 
L 96.09375 50.78125 
Q 87.109375 51.171875 83.203125 51.171875 
L 83.203125 1.953125 
Q 83.59375 -5.46875 78.3125 -7.421875 
Q 73.046875 -9.375 66.40625 -10.15625 
Q 65.234375 -5.46875 62.890625 -1.5625 
Q 71.484375 -1.5625 73.625 -0.578125 
Q 75.78125 0.390625 75.390625 5.078125 
L 75.390625 51.171875 
L 58.984375 51.171875 
Q 55.46875 51.171875 45.703125 50.390625 
z
M 53.90625 42.578125 
Q 60.546875 30.859375 65.234375 20.703125 
Q 60.15625 18.75 57.8125 16.796875 
Q 54.296875 27.34375 47.65625 38.671875 
Q 50.390625 39.84375 53.90625 42.578125 
z
" id="SimHei-5bf9"/>
     <path d="M 58.984375 79.6875 
Q 58.59375 71.484375 58.59375 64.0625 
L 58.59375 47.65625 
Q 76.953125 56.25 85.546875 65.234375 
Q 88.671875 60.9375 92.1875 57.421875 
Q 87.5 54.6875 78.703125 49.796875 
Q 69.921875 44.921875 58.59375 39.84375 
L 58.59375 7.03125 
Q 58.59375 1.5625 63.28125 1.5625 
L 78.125 1.5625 
Q 80.859375 1.5625 82.21875 3.90625 
Q 83.59375 6.25 85.15625 14.0625 
Q 88.28125 12.109375 94.140625 10.546875 
Q 91.40625 0 88.28125 -2.734375 
Q 85.15625 -5.46875 81.640625 -5.46875 
L 60.9375 -5.46875 
Q 50.78125 -5.46875 50.78125 4.296875 
L 50.78125 62.5 
Q 50.78125 71.09375 50.390625 79.6875 
L 58.984375 79.6875 
z
M 19.921875 77.734375 
Q 19.53125 71.484375 19.53125 62.5 
L 19.53125 49.21875 
L 28.90625 49.21875 
Q 36.328125 49.21875 44.921875 49.609375 
L 44.921875 41.40625 
Q 36.328125 41.796875 28.90625 41.796875 
L 19.53125 41.796875 
L 19.53125 7.421875 
Q 25.78125 10.15625 30.65625 12.6875 
Q 35.546875 15.234375 44.53125 19.921875 
Q 45.3125 14.84375 46.09375 11.71875 
Q 37.109375 7.421875 27.53125 2.734375 
Q 17.96875 -1.953125 14.453125 -5.078125 
Q 11.71875 -1.5625 8.984375 3.125 
Q 10.9375 4.6875 11.71875 9.375 
L 11.71875 61.71875 
Q 11.71875 71.09375 11.328125 77.734375 
L 19.921875 77.734375 
z
" id="SimHei-6bd4"/>
    </defs>
    <g transform="translate(297.081 73.4016)scale(0.12 -0.12)">
     <use xlink:href="#SimHei-5341"/>
     <use x="100" xlink:href="#SimHei-4e8c"/>
     <use x="200" xlink:href="#SimHei-79cd"/>
     <use x="300" xlink:href="#SimHei-4fe1"/>
     <use x="400" xlink:href="#SimHei-53f7"/>
     <use x="500" xlink:href="#SimHei-4fee"/>
     <use x="600" xlink:href="#SimHei-6b63"/>
     <use x="700" xlink:href="#SimHei-524d"/>
     <use x="800" xlink:href="#SimHei-540e"/>
     <use x="900" xlink:href="#SimHei-5747"/>
     <use x="1000" xlink:href="#SimHei-65b9"/>
     <use x="1100" xlink:href="#SimHei-8bef"/>
     <use x="1200" xlink:href="#SimHei-5dee"/>
     <use x="1300" xlink:href="#SimHei-5bf9"/>
     <use x="1400" xlink:href="#SimHei-6bd4"/>
    </g>
   </g>
   <g id="legend_1">
    <g id="patch_7">
     <path d="M 530.752 116.1516 
L 672.752 116.1516 
Q 674.752 116.1516 674.752 114.1516 
L 674.752 86.4016 
Q 674.752 84.4016 672.752 84.4016 
L 530.752 84.4016 
Q 528.752 84.4016 528.752 86.4016 
L 528.752 114.1516 
Q 528.752 116.1516 530.752 116.1516 
z
" style="fill:#ffffff;opacity:0.8;stroke:#cccccc;stroke-linejoin:miter;"/>
    </g>
    <g id="line2d_15">
     <path d="M 532.752 93.0266 
L 552.752 93.0266 
" style="fill:none;stroke:#1f77b4;stroke-linecap:square;stroke-width:1.5;"/>
    </g>
    <g id="line2d_16"/>
    <g id="text_16">
     <!-- 修正前特征信号均方误差 -->
     <defs>
      <path d="M 63.28125 49.21875 
L 63.28125 63.28125 
L 57.421875 63.28125 
Q 51.171875 63.28125 46.484375 62.890625 
L 46.484375 69.921875 
Q 50.78125 69.53125 57.421875 69.53125 
L 63.28125 69.53125 
Q 63.28125 77.34375 62.5 81.25 
L 70.703125 81.25 
Q 70.3125 77.34375 70.3125 69.53125 
L 79.296875 69.53125 
Q 85.15625 69.53125 90.625 69.921875 
L 90.625 62.890625 
Q 86.71875 63.28125 79.296875 63.28125 
L 70.3125 63.28125 
L 70.3125 49.21875 
L 85.15625 49.21875 
Q 91.015625 49.21875 96.09375 49.609375 
L 96.09375 42.578125 
Q 91.40625 42.96875 85.9375 42.96875 
L 82.421875 42.96875 
L 82.421875 31.25 
Q 91.015625 31.25 95.3125 31.640625 
L 95.3125 24.21875 
Q 90.625 24.609375 82.421875 24.609375 
L 82.421875 -1.171875 
Q 82.03125 -5.859375 78.90625 -7.609375 
Q 75.78125 -9.375 66.796875 -10.546875 
Q 66.015625 -5.859375 63.671875 -1.5625 
Q 70.703125 -1.953125 73.046875 -1.5625 
Q 75.390625 -1.171875 75.390625 2.34375 
L 75.390625 24.609375 
L 56.25 24.609375 
Q 49.609375 24.609375 44.53125 24.21875 
L 44.53125 31.640625 
Q 48.828125 31.25 56.25 31.25 
L 75.390625 31.25 
L 75.390625 42.96875 
L 55.859375 42.96875 
Q 48.828125 42.96875 43.359375 42.578125 
L 43.359375 49.609375 
Q 48.828125 49.21875 55.46875 49.21875 
z
M 17.96875 66.796875 
Q 16.40625 64.453125 14.84375 56.25 
L 23.4375 56.25 
L 23.4375 69.140625 
Q 23.4375 75 23.046875 81.25 
L 31.25 81.25 
Q 30.46875 75.390625 30.46875 69.140625 
L 30.46875 56.25 
Q 35.9375 56.25 40.625 56.640625 
L 40.625 49.609375 
Q 36.328125 50 30.46875 50 
L 30.46875 32.421875 
Q 35.546875 34.375 40.234375 36.328125 
Q 40.625 33.203125 41.40625 29.6875 
Q 37.109375 28.125 30.46875 25.390625 
L 30.46875 3.515625 
Q 30.46875 -2.734375 30.859375 -10.15625 
L 23.046875 -10.15625 
Q 23.4375 -3.125 23.4375 3.515625 
L 23.4375 22.65625 
Q 13.28125 18.75 8.59375 16.015625 
Q 7.03125 19.921875 4.296875 24.21875 
Q 9.375 24.609375 23.4375 30.078125 
L 23.4375 50 
L 13.28125 50 
Q 11.71875 43.359375 10.546875 38.28125 
Q 6.640625 39.84375 3.515625 40.625 
Q 5.46875 46.09375 7.21875 54.484375 
Q 8.984375 62.890625 9.375 68.75 
Q 14.0625 67.578125 17.96875 66.796875 
z
M 56.25 18.75 
Q 59.375 11.71875 62.109375 5.078125 
Q 58.59375 4.296875 54.6875 2.34375 
Q 51.953125 10.546875 48.828125 16.015625 
Q 52.734375 17.1875 56.25 18.75 
z
" id="SimHei-7279"/>
      <path d="M 78.90625 72.65625 
Q 87.109375 72.65625 93.359375 73.046875 
L 93.359375 65.234375 
Q 87.109375 65.625 78.90625 65.625 
L 69.53125 65.625 
L 69.53125 41.015625 
L 78.125 41.015625 
Q 85.546875 41.015625 91.796875 41.40625 
L 91.796875 33.984375 
Q 85.546875 34.375 78.125 34.375 
L 69.53125 34.375 
L 69.53125 3.125 
L 79.6875 3.125 
Q 87.109375 3.125 95.703125 3.515625 
L 95.703125 -3.90625 
Q 87.109375 -3.515625 79.6875 -3.515625 
L 44.921875 -3.515625 
Q 35.546875 -3.515625 29.296875 -3.90625 
L 29.296875 3.515625 
Q 34.765625 3.125 41.40625 3.125 
L 41.40625 32.8125 
Q 41.40625 38.671875 41.015625 45.703125 
L 49.609375 45.703125 
Q 49.21875 39.0625 49.21875 32.8125 
L 49.21875 3.125 
L 61.328125 3.125 
L 61.328125 65.625 
L 53.515625 65.625 
Q 44.53125 65.625 37.890625 65.234375 
L 37.890625 73.046875 
Q 44.53125 72.65625 53.515625 72.65625 
z
M 35.15625 53.90625 
Q 32.8125 50.390625 25.390625 40.234375 
L 25.390625 7.03125 
Q 25.390625 -1.5625 25.78125 -10.9375 
L 17.1875 -10.9375 
Q 17.578125 -1.5625 17.578125 7.03125 
L 17.578125 31.25 
Q 12.890625 25 8.59375 20.3125 
Q 6.640625 24.21875 3.515625 26.953125 
Q 10.546875 33.59375 16.59375 41.40625 
Q 22.65625 49.21875 26.953125 58.984375 
Q 30.46875 56.640625 35.15625 53.90625 
z
M 3.90625 57.421875 
Q 10.546875 62.109375 16.015625 68.9375 
Q 21.484375 75.78125 24.21875 82.421875 
Q 28.515625 80.078125 33.203125 77.734375 
Q 29.6875 73.828125 23.234375 65.8125 
Q 16.796875 57.8125 10.546875 51.171875 
Q 7.421875 54.296875 3.90625 57.421875 
z
" id="SimHei-5f81"/>
     </defs>
     <g transform="translate(560.752 96.5266)scale(0.1 -0.1)">
      <use xlink:href="#SimHei-4fee"/>
      <use x="100" xlink:href="#SimHei-6b63"/>
      <use x="200" xlink:href="#SimHei-524d"/>
      <use x="300" xlink:href="#SimHei-7279"/>
      <use x="400" xlink:href="#SimHei-5f81"/>
      <use x="500" xlink:href="#SimHei-4fe1"/>
      <use x="600" xlink:href="#SimHei-53f7"/>
      <use x="700" xlink:href="#SimHei-5747"/>
      <use x="800" xlink:href="#SimHei-65b9"/>
      <use x="900" xlink:href="#SimHei-8bef"/>
      <use x="1000" xlink:href="#SimHei-5dee"/>
     </g>
    </g>
    <g id="line2d_17">
     <path d="M 532.752 107.4016 
L 552.752 107.4016 
" style="fill:none;stroke:#ff7f0e;stroke-linecap:square;stroke-width:1.5;"/>
    </g>
    <g id="line2d_18"/>
    <g id="text_17">
     <!-- 修正后特征信号均方误差 -->
     <g transform="translate(560.752 110.9016)scale(0.1 -0.1)">
      <use xlink:href="#SimHei-4fee"/>
      <use x="100" xlink:href="#SimHei-6b63"/>
      <use x="200" xlink:href="#SimHei-540e"/>
      <use x="300" xlink:href="#SimHei-7279"/>
      <use x="400" xlink:href="#SimHei-5f81"/>
      <use x="500" xlink:href="#SimHei-4fe1"/>
      <use x="600" xlink:href="#SimHei-53f7"/>
      <use x="700" xlink:href="#SimHei-5747"/>
      <use x="800" xlink:href="#SimHei-65b9"/>
      <use x="900" xlink:href="#SimHei-8bef"/>
      <use x="1000" xlink:href="#SimHei-5dee"/>
     </g>
    </g>
   </g>
  </g>
 </g>
 <defs>
  <clipPath id="p175b6eddd5">
   <rect height="509.4936" width="585.342" x="94.41" y="79.4016"/>
  </clipPath>
 </defs>
</svg>
